<svg width="41" height="40" viewBox="0 0 41 40" fill="none" xmlns="http://www.w3.org/2000/svg">
<path d="M18.4946 20.5469C18.4946 21.0856 18.7074 21.6023 19.0861 21.9832C19.4649 22.3641 19.9785 22.5781 20.5142 22.5781C21.0498 22.5781 21.5635 22.3641 21.9422 21.9832C22.3209 21.6023 22.5337 21.0856 22.5337 20.5469C22.5337 20.2801 22.4815 20.016 22.38 19.7695C22.2785 19.5231 22.1297 19.2992 21.9422 19.1106C21.7547 18.9219 21.532 18.7723 21.287 18.6702C21.042 18.5682 20.7794 18.5156 20.5142 18.5156C20.249 18.5156 19.9863 18.5682 19.7413 18.6702C19.4963 18.7723 19.2737 18.9219 19.0861 19.1106C18.8986 19.2992 18.7498 19.5231 18.6484 19.7695C18.5469 20.016 18.4946 20.2801 18.4946 20.5469Z" fill="#E6F7FF"/>
<path d="M30.5154 13.75C30.5154 13.9219 30.3748 14.0625 30.2029 14.0625H28.0154C27.8435 14.0625 27.7029 13.9219 27.7029 13.75V11.5625H21.9216V13.75C21.9216 13.9219 21.781 14.0625 21.6091 14.0625H19.4216C19.2498 14.0625 19.1091 13.9219 19.1091 13.75V11.5625H13.3279V13.75C13.3279 13.9219 13.1873 14.0625 13.0154 14.0625H10.8279C10.656 14.0625 10.5154 13.9219 10.5154 13.75V11.5625H5.82788V30.9375H35.2029V11.5625H30.5154V13.75ZM26.3357 28.75H24.6248C24.4607 28.75 24.3279 28.6211 24.3162 28.457C24.1677 26.4844 22.5193 24.9219 20.5193 24.9219C18.5193 24.9219 16.8708 26.4805 16.7224 28.457C16.7107 28.6211 16.5779 28.75 16.4138 28.75H14.699C14.6566 28.7501 14.6146 28.7415 14.5757 28.7248C14.5367 28.7081 14.5015 28.6837 14.4723 28.653C14.4431 28.6223 14.4204 28.586 14.4056 28.5463C14.3909 28.5065 14.3844 28.4642 14.3865 28.4219C14.4958 26.3398 15.6326 24.5312 17.3005 23.4961C16.5935 22.7148 16.1638 21.6836 16.1638 20.5469C16.1638 18.1289 18.113 16.1719 20.5154 16.1719C22.9177 16.1719 24.8669 18.1289 24.8669 20.5469C24.8669 21.6836 24.4373 22.7188 23.7302 23.4961C25.3982 24.5273 26.5388 26.3398 26.6482 28.4219C26.6503 28.4642 26.6438 28.5065 26.629 28.5463C26.6143 28.586 26.5916 28.6223 26.5624 28.653C26.5331 28.6837 26.498 28.7081 26.459 28.7248C26.42 28.7415 26.3781 28.7501 26.3357 28.75Z" fill="#E6F7FF"/>
<path d="M23.7303 23.4961C24.4642 22.6894 24.8697 21.6374 24.8671 20.5469C24.8671 18.1289 22.9178 16.1719 20.5155 16.1719C18.1132 16.1719 16.164 18.1289 16.164 20.5469C16.164 21.6836 16.5936 22.7148 17.3007 23.4961C16.4535 24.0211 15.746 24.7433 15.2386 25.601C14.7311 26.4588 14.4388 27.4266 14.3866 28.4219C14.3845 28.4642 14.391 28.5065 14.4058 28.5463C14.4205 28.586 14.4432 28.6223 14.4724 28.653C14.5017 28.6837 14.5368 28.7081 14.5758 28.7248C14.6148 28.7415 14.6567 28.7501 14.6991 28.75H16.414C16.578 28.75 16.7108 28.6211 16.7225 28.457C16.871 26.4805 18.5194 24.9219 20.5194 24.9219C22.5194 24.9219 24.1678 26.4844 24.3163 28.457C24.328 28.6211 24.4608 28.75 24.6249 28.75H26.3358C26.3782 28.7501 26.4201 28.7415 26.4591 28.7248C26.4981 28.7081 26.5332 28.6837 26.5625 28.653C26.5917 28.6223 26.6144 28.586 26.6291 28.5463C26.6439 28.5065 26.6504 28.4642 26.6483 28.4219C26.5389 26.3398 25.3983 24.5273 23.7303 23.4961ZM20.5155 22.5781C19.4022 22.5781 18.496 21.668 18.496 20.5469C18.496 19.4258 19.4022 18.5156 20.5155 18.5156C21.6288 18.5156 22.535 19.4258 22.535 20.5469C22.535 21.668 21.6288 22.5781 20.5155 22.5781Z" fill="#00A551"/>
<path d="M36.7654 8.75H30.5154V6.5625C30.5154 6.39062 30.3748 6.25 30.2029 6.25H28.0154C27.8435 6.25 27.7029 6.39062 27.7029 6.5625V8.75H21.9216V6.5625C21.9216 6.39062 21.781 6.25 21.6091 6.25H19.4216C19.2498 6.25 19.1091 6.39062 19.1091 6.5625V8.75H13.3279V6.5625C13.3279 6.39062 13.1873 6.25 13.0154 6.25H10.8279C10.656 6.25 10.5154 6.39062 10.5154 6.5625V8.75H4.26538C3.57397 8.75 3.01538 9.30859 3.01538 10V32.5C3.01538 33.1914 3.57397 33.75 4.26538 33.75H36.7654C37.4568 33.75 38.0154 33.1914 38.0154 32.5V10C38.0154 9.30859 37.4568 8.75 36.7654 8.75ZM35.2029 30.9375H5.82788V11.5625H10.5154V13.75C10.5154 13.9219 10.656 14.0625 10.8279 14.0625H13.0154C13.1873 14.0625 13.3279 13.9219 13.3279 13.75V11.5625H19.1091V13.75C19.1091 13.9219 19.2498 14.0625 19.4216 14.0625H21.6091C21.781 14.0625 21.9216 13.9219 21.9216 13.75V11.5625H27.7029V13.75C27.7029 13.9219 27.8435 14.0625 28.0154 14.0625H30.2029C30.3748 14.0625 30.5154 13.9219 30.5154 13.75V11.5625H35.2029V30.9375Z" fill="#00A551"/>
</svg>

