<svg width="174" height="33" viewBox="0 0 174 33" fill="none" xmlns="http://www.w3.org/2000/svg">
<path d="M16.5257 27.6657H30.3454V21.8612H22.3569V19.8816H28.6601V14.1777H22.3569V11.0238H30.3454V5.18571H16.5257V9.49158H7.72446L16.5257 11.6124V14.5135L0 14.5058L16.5257 17.0414V20.6757H7.72446L16.5257 22.1234V27.6657Z" fill="#00A551"/>
<path fill-rule="evenodd" clip-rule="evenodd" d="M31.5238 27.6657H37.3214V23.2033H39.1079C44.1639 23.2033 48.2087 19.2106 48.2087 14.2784C48.2087 9.21198 44.1639 5.18571 39.1079 5.18571H31.5238V27.6657ZM39.1079 11.0238C40.8943 11.0238 42.3774 12.3994 42.3774 14.2784C42.3774 15.9895 40.8943 17.4323 39.1079 17.4323H37.3214V11.0238H39.1079Z" fill="#00A551"/>
<path fill-rule="evenodd" clip-rule="evenodd" d="M54.2077 27.6657H48.4101V5.18571H55.9942C61.0502 5.18571 65.095 9.21198 65.095 14.2784C65.095 19.2106 61.0502 23.2033 55.9942 23.2033H54.2077V27.6657ZM59.2637 14.2784C59.2637 12.3994 57.7806 11.0238 55.9942 11.0238H54.2077V17.4323H55.9942C57.7806 17.4323 59.2637 15.9895 59.2637 14.2784Z" fill="#00A551"/>
<path d="M71.5983 13.4358H78.3633V11.2743H73.7598V9.57477H77.5383V7.44627H73.7598V4.55877H78.3633V2.38077H71.5983V13.4358Z" fill="#595959"/>
<path d="M79.1877 5.35077V13.4358H81.2337V9.57477C81.2832 8.18877 82.1247 7.34727 83.2467 7.34727C84.3522 7.34727 85.2432 8.30427 85.2432 9.40977V13.4358H87.2892V9.14577C87.2892 6.86877 85.7382 5.31777 83.8077 5.31777C82.7682 5.31777 81.8772 5.74677 81.2337 6.55527V5.35077H79.1877Z" fill="#595959"/>
<path d="M88.3907 7.01727V10.7958C88.3907 12.6438 89.2817 13.4688 91.3442 13.4688V11.6538C90.7502 11.6538 90.4532 11.3733 90.4532 10.7958V7.01727H91.5752V5.31777H90.4532V3.05727H88.3907V5.31777H87.8792V7.01727H88.3907Z" fill="#595959"/>
<path d="M98.1062 10.1358C97.6442 10.7958 97.0007 11.2248 96.3242 11.4063C95.9117 11.5218 95.4332 11.4558 95.2187 11.3403L99.5912 7.46277C98.6012 5.89527 97.2482 5.31777 95.8127 5.31777C93.5687 5.31777 91.7537 7.13277 91.7537 9.40977C91.7537 11.6538 93.5687 13.4688 95.8127 13.4688C97.2482 13.4688 98.5022 12.9243 99.4922 11.4723L98.1062 10.1358ZM93.7172 9.09627C93.8987 8.05677 94.5587 7.42977 95.5322 7.29777C96.1262 7.23177 96.6212 7.42977 96.9017 7.67727L93.9977 10.4163C93.7502 10.1688 93.6017 9.67377 93.7172 9.09627Z" fill="#595959"/>
<path d="M102.428 13.4358V9.19527C102.477 8.20527 103.566 7.39677 104.556 7.39677V5.31777C103.616 5.31777 102.89 5.82927 102.428 6.48927V5.35077H100.382V13.4358H102.428Z" fill="#595959"/>
<path d="M105.017 15.6303H107.063V12.3468C107.674 13.0563 108.515 13.4688 109.505 13.4688C111.535 13.4688 113.119 11.6538 113.119 9.40977C113.119 7.13277 111.535 5.31777 109.505 5.31777C108.515 5.31777 107.674 5.74677 107.063 6.45627V5.35077H105.017V15.6303ZM107.063 9.32727C107.113 8.27127 107.954 7.39677 109.076 7.39677C110.182 7.39677 111.073 8.28777 111.073 9.40977C111.073 10.5153 110.182 11.4063 109.076 11.4063C107.954 11.4063 107.063 10.5153 107.063 9.40977V9.32727Z" fill="#595959"/>
<path d="M116.301 13.4358V9.19527C116.351 8.20527 117.44 7.39677 118.43 7.39677V5.31777C117.489 5.31777 116.763 5.82927 116.301 6.48927V5.35077H114.255V13.4358H116.301Z" fill="#595959"/>
<path d="M119.072 5.35077V13.4358H121.118V5.35077H119.072ZM118.874 3.23877C118.874 3.89877 119.435 4.45977 120.095 4.45977C120.805 4.45977 121.333 3.89877 121.333 3.23877C121.333 2.52927 120.805 1.98477 120.095 1.98477C119.435 1.98477 118.874 2.52927 118.874 3.23877Z" fill="#595959"/>
<path d="M127.261 7.80927C127.261 6.22527 126.304 5.31777 124.72 5.31777C123.219 5.31777 122.196 6.37377 122.196 7.82577C122.196 9.07977 122.971 9.85527 124.027 10.1193C124.836 10.3503 125.463 10.3998 125.463 11.0103C125.463 11.4228 125.182 11.7363 124.869 11.7363C124.539 11.7363 124.242 11.4558 124.242 10.9938H122.196C122.196 12.5118 123.334 13.4688 124.72 13.4688C126.172 13.4688 127.261 12.3303 127.261 10.9278C127.261 9.62427 126.684 8.94777 125.512 8.66727C124.671 8.41977 124.192 8.23827 124.192 7.75977C124.192 7.31427 124.44 6.98427 124.786 6.98427C125.133 6.98427 125.397 7.34727 125.397 7.80927H127.261Z" fill="#595959"/>
<path d="M134.442 10.1358C133.98 10.7958 133.336 11.2248 132.66 11.4063C132.247 11.5218 131.769 11.4558 131.554 11.3403L135.927 7.46277C134.937 5.89527 133.584 5.31777 132.148 5.31777C129.904 5.31777 128.089 7.13277 128.089 9.40977C128.089 11.6538 129.904 13.4688 132.148 13.4688C133.584 13.4688 134.838 12.9243 135.828 11.4723L134.442 10.1358ZM130.053 9.09627C130.234 8.05677 130.894 7.42977 131.868 7.29777C132.462 7.23177 132.957 7.42977 133.237 7.67727L130.333 10.4163C130.086 10.1688 129.937 9.67377 130.053 9.09627Z" fill="#595959"/>
<path d="M71.4663 29.9358H73.6113V27.5598H75.0303C77.4558 27.5598 79.3863 25.6293 79.3863 23.2533C79.3863 20.8113 77.4558 18.8808 75.0303 18.8808H71.4663V29.9358ZM75.0303 21.0588C76.2348 21.0588 77.2248 21.9993 77.2248 23.2533C77.2248 24.4248 76.2348 25.4148 75.0303 25.4148H73.6113V21.0588H75.0303Z" fill="#595959"/>
<path d="M82.1249 29.9358V25.6953C82.1744 24.7053 83.2634 23.8968 84.2534 23.8968V21.8178C83.3129 21.8178 82.5869 22.3293 82.1249 22.9893V21.8508H80.0789V29.9358H82.1249Z" fill="#595959"/>
<path d="M90.6215 25.9098C90.6215 27.0153 89.7305 27.9063 88.6415 27.9063C87.536 27.9063 86.645 27.0153 86.645 25.9098C86.645 24.7878 87.536 23.8968 88.6415 23.8968C89.7305 23.8968 90.6215 24.7878 90.6215 25.9098ZM92.7005 25.9098C92.7005 23.6328 90.8855 21.8178 88.6415 21.8178C86.348 21.8178 84.5825 23.6328 84.5825 25.9098C84.5825 28.1538 86.348 29.9688 88.6415 29.9688C90.8855 29.9688 92.7005 28.1538 92.7005 25.9098Z" fill="#595959"/>
<path d="M93.6616 21.8508V32.1303H95.7076V21.8508H93.6616ZM93.4636 19.7388C93.4636 20.3988 94.0246 20.9598 94.6846 20.9598C95.3941 20.9598 95.9221 20.3988 95.9221 19.7388C95.9221 19.0293 95.3941 18.4848 94.6846 18.4848C94.0246 18.4848 93.4636 19.0293 93.4636 19.7388Z" fill="#595959"/>
<path d="M102.956 26.6358C102.494 27.2958 101.851 27.7248 101.174 27.9063C100.762 28.0218 100.283 27.9558 100.069 27.8403L104.441 23.9628C103.451 22.3953 102.098 21.8178 100.663 21.8178C98.4188 21.8178 96.6038 23.6328 96.6038 25.9098C96.6038 28.1538 98.4188 29.9688 100.663 29.9688C102.098 29.9688 103.352 29.4243 104.342 27.9723L102.956 26.6358ZM98.5673 25.5963C98.7488 24.5568 99.4088 23.9298 100.382 23.7978C100.976 23.7318 101.471 23.9298 101.752 24.1773L98.8478 26.9163C98.6003 26.6688 98.4518 26.1738 98.5673 25.5963Z" fill="#595959"/>
<path d="M112.525 23.7978C111.65 22.4118 110.363 21.8508 108.977 21.8508C106.684 21.8508 104.918 23.6163 104.918 25.9098C104.918 28.1538 106.684 29.9688 108.977 29.9688C110.363 29.9688 111.716 29.3418 112.525 27.9558L111.04 26.5533C110.528 27.4113 109.819 27.9063 108.977 27.9063C107.872 27.9063 106.948 27.0153 106.948 25.9098C106.948 24.8043 107.888 23.9133 108.977 23.9133C109.967 23.9133 110.512 24.4083 111.04 25.2498L112.525 23.7978Z" fill="#595959"/>
<path d="M112.996 23.5173V27.2958C112.996 29.1438 113.887 29.9688 115.949 29.9688V28.1538C115.355 28.1538 115.058 27.8733 115.058 27.2958V23.5173H116.18V21.8178H115.058V19.5573H112.996V21.8178H112.484V23.5173H112.996Z" fill="#595959"/>
<path d="M119.874 32.1303H121.92V28.8468C122.53 29.5563 123.372 29.9688 124.362 29.9688C126.391 29.9688 127.975 28.1538 127.975 25.9098C127.975 23.6328 126.391 21.8178 124.362 21.8178C123.372 21.8178 122.53 22.2468 121.92 22.9563V21.8508H119.874V32.1303ZM121.92 25.8273C121.969 24.7713 122.811 23.8968 123.933 23.8968C125.038 23.8968 125.929 24.7878 125.929 25.9098C125.929 27.0153 125.038 27.9063 123.933 27.9063C122.811 27.9063 121.92 27.0153 121.92 25.9098V25.8273Z" fill="#595959"/>
<path d="M134.804 25.9098C134.804 27.0153 133.913 27.9063 132.824 27.9063C131.719 27.9063 130.828 27.0153 130.828 25.9098C130.828 24.7878 131.719 23.8968 132.824 23.8968C133.913 23.8968 134.804 24.7878 134.804 25.9098ZM136.883 25.9098C136.883 23.6328 135.068 21.8178 132.824 21.8178C130.531 21.8178 128.765 23.6328 128.765 25.9098C128.765 28.1538 130.531 29.9688 132.824 29.9688C135.068 29.9688 136.883 28.1538 136.883 25.9098Z" fill="#595959"/>
<path d="M139.923 29.9358V25.6953C139.973 24.7053 141.062 23.8968 142.052 23.8968V21.8178C141.111 21.8178 140.385 22.3293 139.923 22.9893V21.8508H137.877V29.9358H139.923Z" fill="#595959"/>
<path d="M142.612 23.5173V27.2958C142.612 29.1438 143.503 29.9688 145.565 29.9688V28.1538C144.971 28.1538 144.674 27.8733 144.674 27.2958V23.5173H145.796V21.8178H144.674V19.5573H142.612V21.8178H142.1V23.5173H142.612Z" fill="#595959"/>
<path d="M155.849 25.2498C155.849 26.3553 154.958 27.2463 153.869 27.2463C152.764 27.2463 151.873 26.3553 151.873 25.2498C151.873 24.1278 152.764 23.2368 153.869 23.2368C154.958 23.2368 155.849 24.1278 155.849 25.2498ZM157.928 25.2498C157.928 22.9728 156.113 21.1578 153.869 21.1578C151.576 21.1578 149.81 22.9728 149.81 25.2498C149.81 27.4938 151.576 29.3088 153.869 29.3088C156.113 29.3088 157.928 27.4938 157.928 25.2498Z" fill="#595959"/>
<path d="M158.389 19.5573V29.9358H160.435V19.5573H158.389Z" fill="#595959"/>
<path d="M161.644 21.8508V29.9358H163.69V21.8508H161.644ZM161.446 19.7388C161.446 20.3988 162.007 20.9598 162.667 20.9598C163.376 20.9598 163.904 20.3988 163.904 19.7388C163.904 19.0293 163.376 18.4848 162.667 18.4848C162.007 18.4848 161.446 19.0293 161.446 19.7388Z" fill="#595959"/>
<path d="M170.608 25.9098C170.608 27.0153 169.717 27.9063 168.628 27.9063C167.522 27.9063 166.631 27.0153 166.631 25.9098C166.631 24.7878 167.522 23.8968 168.628 23.8968C169.717 23.8968 170.608 24.7878 170.608 25.9098ZM172.687 25.9098C172.687 23.6328 170.872 21.8178 168.628 21.8178C166.334 21.8178 164.569 23.6328 164.569 25.9098C164.569 28.1538 166.334 29.9688 168.628 29.9688C170.872 29.9688 172.687 28.1538 172.687 25.9098Z" fill="#595959"/>
<path d="M146.312 23.5173H146.84V29.9358H148.886V23.5173H149.81V21.8178H148.886V21.5043C148.886 20.9268 149.216 20.6958 149.761 20.6958V19.1613C149.579 19.1448 149.398 19.1283 149.233 19.1283C147.451 19.1283 146.84 20.3988 146.84 21.7848V21.8178H146.312V23.5173Z" fill="#595959"/>
</svg>
