<svg width="41" height="40" viewBox="0 0 41 40" fill="none" xmlns="http://www.w3.org/2000/svg">
<path d="M34.8904 4.375H6.14038C5.44897 4.375 4.89038 4.93359 4.89038 5.625V34.375C4.89038 35.0664 5.44897 35.625 6.14038 35.625H34.8904C35.5818 35.625 36.1404 35.0664 36.1404 34.375V5.625C36.1404 4.93359 35.5818 4.375 34.8904 4.375ZM33.3279 32.8125H7.70288V7.1875H33.3279V32.8125Z" fill="#00A551"/>
<path d="M7.70288 32.8125H33.3279V7.1875H7.70288V32.8125ZM26.1404 10.9375C26.1404 10.7656 26.281 10.625 26.4529 10.625H29.5779C29.7498 10.625 29.8904 10.7656 29.8904 10.9375V20.9375C29.8904 21.1094 29.7498 21.25 29.5779 21.25H26.4529C26.281 21.25 26.1404 21.1094 26.1404 20.9375V10.9375ZM18.6404 10.9375C18.6404 10.7656 18.781 10.625 18.9529 10.625H22.0779C22.2498 10.625 22.3904 10.7656 22.3904 10.9375V18.125C22.3904 18.2969 22.2498 18.4375 22.0779 18.4375H18.9529C18.781 18.4375 18.6404 18.2969 18.6404 18.125V10.9375ZM11.1404 10.9375C11.1404 10.7656 11.281 10.625 11.4529 10.625H14.5779C14.7498 10.625 14.8904 10.7656 14.8904 10.9375V29.0625C14.8904 29.2344 14.7498 29.375 14.5779 29.375H11.4529C11.281 29.375 11.1404 29.2344 11.1404 29.0625V10.9375Z" fill="#E6F7FF"/>
<path d="M11.4529 29.375H14.5779C14.7498 29.375 14.8904 29.2344 14.8904 29.0625V10.9375C14.8904 10.7656 14.7498 10.625 14.5779 10.625H11.4529C11.281 10.625 11.1404 10.7656 11.1404 10.9375V29.0625C11.1404 29.2344 11.281 29.375 11.4529 29.375ZM18.9529 18.4375H22.0779C22.2498 18.4375 22.3904 18.2969 22.3904 18.125V10.9375C22.3904 10.7656 22.2498 10.625 22.0779 10.625H18.9529C18.781 10.625 18.6404 10.7656 18.6404 10.9375V18.125C18.6404 18.2969 18.781 18.4375 18.9529 18.4375ZM26.4529 21.25H29.5779C29.7498 21.25 29.8904 21.1094 29.8904 20.9375V10.9375C29.8904 10.7656 29.7498 10.625 29.5779 10.625H26.4529C26.281 10.625 26.1404 10.7656 26.1404 10.9375V20.9375C26.1404 21.1094 26.281 21.25 26.4529 21.25Z" fill="#00A551"/>
</svg>

