<svg width="33" height="32" viewBox="0 0 33 32" fill="none" xmlns="http://www.w3.org/2000/svg">
<path d="M30.7575 5.35508C30.7379 5.31993 30.7106 5.28477 30.6793 5.25743C30.484 5.06212 30.1676 5.06212 29.9723 5.25743L23.2418 11.9879L20.5895 9.33555L27.3239 2.60118C27.3551 2.56993 27.3786 2.53868 27.402 2.50352C27.5426 2.26524 27.4645 1.96055 27.2262 1.81993C23.3903 -0.445696 18.3668 0.0738349 15.0661 3.37071C12.4489 5.9879 11.5817 9.69884 12.4684 13.0348L1.0231 24.4801C0.905912 24.5973 0.913724 24.7887 1.03482 24.9098L7.66372 31.5387C7.78482 31.6598 7.98013 31.6676 8.09341 31.5504L19.5348 20.109C22.8747 20.9996 26.5856 20.1363 29.2067 17.5152C32.5036 14.2145 33.0231 9.19102 30.7575 5.35508ZM27.2184 15.5231C24.9489 17.7926 21.5426 18.2301 18.8356 16.8356L18.4918 17.1793L18.4879 17.1754L7.78482 27.8824L4.69107 24.7887L13.6793 15.8004C13.6793 15.8004 13.6793 15.8043 13.6833 15.8043L15.7458 13.7418C14.3512 11.0348 14.7887 7.62852 17.0583 5.35899C17.7902 4.62637 18.6717 4.06038 19.6425 3.6997C20.6133 3.33903 21.6505 3.19217 22.6833 3.26915L17.4918 8.45665C17.2574 8.69139 17.1257 9.00962 17.1257 9.34141C17.1257 9.67321 17.2574 9.99143 17.4918 10.2262L22.3551 15.0895C22.5899 15.3239 22.9081 15.4557 23.2399 15.4557C23.5717 15.4557 23.8899 15.3239 24.1247 15.0895L29.3122 9.90196C29.4567 11.9254 28.7497 13.9957 27.2184 15.5231Z" fill="#00A551"/>
</svg>
