<svg width="219" height="33" viewBox="0 0 219 33" fill="none" xmlns="http://www.w3.org/2000/svg">
<path fill-rule="evenodd" clip-rule="evenodd" d="M5.5 11H11V5.5H5.5V11ZM13.75 27.5H19.25V22H13.75V27.5ZM11 27.5H5.5V22H11V27.5ZM5.5 19.25H11V13.75H5.5V19.25ZM19.25 19.25H13.75V13.75H19.25V19.25ZM22 5.5V11H27.5V5.5H22ZM19.25 11H13.75V5.5H19.25V11ZM22 19.25H27.5V13.75H22V19.25ZM27.5 27.5H22V22H27.5V27.5Z" fill="black" fill-opacity="0.54"/>
<path d="M61.5257 27.6675H75.3454V21.863H67.3569V19.8834H73.6601V14.1795H67.3569V11.0256H75.3454V5.1875H61.5257V9.49337H52.7245L61.5257 11.6142V14.5153L45 14.5076L61.5257 17.0432V20.6774H52.7245L61.5257 22.1252V27.6675Z" fill="#00A551"/>
<path fill-rule="evenodd" clip-rule="evenodd" d="M76.5238 27.6675H82.3214V23.2051H84.1079C89.1639 23.2051 93.2087 19.2123 93.2087 14.2802C93.2087 9.21377 89.1639 5.1875 84.1079 5.1875H76.5238V27.6675ZM84.1079 11.0256C85.8943 11.0256 87.3774 12.4012 87.3774 14.2802C87.3774 15.9913 85.8943 17.4341 84.1079 17.4341H82.3214V11.0256H84.1079Z" fill="#00A551"/>
<path fill-rule="evenodd" clip-rule="evenodd" d="M99.2077 27.6675H93.4101V5.1875H100.994C106.05 5.1875 110.095 9.21377 110.095 14.2802C110.095 19.2123 106.05 23.2051 100.994 23.2051H99.2077V27.6675ZM104.264 14.2802C104.264 12.4012 102.781 11.0256 100.994 11.0256H99.2077V17.4341H100.994C102.781 17.4341 104.264 15.9913 104.264 14.2802Z" fill="#00A551"/>
<path d="M116.598 13.4354H123.363V11.2739H118.76V9.57437H122.538V7.44587H118.76V4.55837H123.363V2.38037H116.598V13.4354Z" fill="#595959"/>
<path d="M124.188 5.35037V13.4354H126.234V9.57437C126.283 8.18837 127.125 7.34687 128.247 7.34687C129.352 7.34687 130.243 8.30387 130.243 9.40937V13.4354H132.289V9.14537C132.289 6.86837 130.738 5.31737 128.808 5.31737C127.768 5.31737 126.877 5.74637 126.234 6.55487V5.35037H124.188Z" fill="#595959"/>
<path d="M133.391 7.01687V10.7954C133.391 12.6434 134.282 13.4684 136.344 13.4684V11.6534C135.75 11.6534 135.453 11.3729 135.453 10.7954V7.01687H136.575V5.31737H135.453V3.05687H133.391V5.31737H132.879V7.01687H133.391Z" fill="#595959"/>
<path d="M143.106 10.1354C142.644 10.7954 142.001 11.2244 141.324 11.4059C140.912 11.5214 140.433 11.4554 140.219 11.3399L144.591 7.46237C143.601 5.89487 142.248 5.31737 140.813 5.31737C138.569 5.31737 136.754 7.13237 136.754 9.40937C136.754 11.6534 138.569 13.4684 140.813 13.4684C142.248 13.4684 143.502 12.9239 144.492 11.4719L143.106 10.1354ZM138.717 9.09587C138.899 8.05638 139.559 7.42937 140.532 7.29737C141.126 7.23137 141.621 7.42937 141.902 7.67687L138.998 10.4159C138.75 10.1684 138.602 9.67337 138.717 9.09587Z" fill="#595959"/>
<path d="M147.428 13.4354V9.19487C147.477 8.20487 148.566 7.39637 149.556 7.39637V5.31737C148.616 5.31737 147.89 5.82887 147.428 6.48887V5.35037H145.382V13.4354H147.428Z" fill="#595959"/>
<path d="M150.017 15.6299H152.063V12.3464C152.674 13.0559 153.515 13.4684 154.505 13.4684C156.535 13.4684 158.119 11.6534 158.119 9.40937C158.119 7.13237 156.535 5.31737 154.505 5.31737C153.515 5.31737 152.674 5.74637 152.063 6.45587V5.35037H150.017V15.6299ZM152.063 9.32687C152.113 8.27087 152.954 7.39637 154.076 7.39637C155.182 7.39637 156.073 8.28737 156.073 9.40937C156.073 10.5149 155.182 11.4059 154.076 11.4059C152.954 11.4059 152.063 10.5149 152.063 9.40937V9.32687Z" fill="#595959"/>
<path d="M161.301 13.4354V9.19487C161.351 8.20487 162.44 7.39637 163.43 7.39637V5.31737C162.489 5.31737 161.763 5.82887 161.301 6.48887V5.35037H159.255V13.4354H161.301Z" fill="#595959"/>
<path d="M164.072 5.35037V13.4354H166.118V5.35037H164.072ZM163.874 3.23837C163.874 3.89837 164.435 4.45937 165.095 4.45937C165.805 4.45937 166.333 3.89837 166.333 3.23837C166.333 2.52887 165.805 1.98438 165.095 1.98438C164.435 1.98438 163.874 2.52887 163.874 3.23837Z" fill="#595959"/>
<path d="M172.261 7.80887C172.261 6.22487 171.304 5.31737 169.72 5.31737C168.218 5.31737 167.195 6.37337 167.195 7.82537C167.195 9.07937 167.971 9.85487 169.027 10.1189C169.835 10.3499 170.462 10.3994 170.462 11.0099C170.462 11.4224 170.182 11.7359 169.868 11.7359C169.538 11.7359 169.241 11.4554 169.241 10.9934H167.195C167.195 12.5114 168.334 13.4684 169.72 13.4684C171.172 13.4684 172.261 12.3299 172.261 10.9274C172.261 9.62387 171.683 8.94737 170.512 8.66687C169.67 8.41937 169.192 8.23787 169.192 7.75937C169.192 7.31387 169.439 6.98387 169.786 6.98387C170.132 6.98387 170.396 7.34687 170.396 7.80887H172.261Z" fill="#595959"/>
<path d="M179.442 10.1354C178.98 10.7954 178.336 11.2244 177.66 11.4059C177.247 11.5214 176.769 11.4554 176.554 11.3399L180.927 7.46237C179.937 5.89487 178.584 5.31737 177.148 5.31737C174.904 5.31737 173.089 7.13237 173.089 9.40937C173.089 11.6534 174.904 13.4684 177.148 13.4684C178.584 13.4684 179.838 12.9239 180.828 11.4719L179.442 10.1354ZM175.053 9.09587C175.234 8.05638 175.894 7.42937 176.868 7.29737C177.462 7.23137 177.957 7.42937 178.237 7.67687L175.333 10.4159C175.086 10.1684 174.937 9.67337 175.053 9.09587Z" fill="#595959"/>
<path d="M116.466 29.9354H118.611V27.5594H120.03C122.456 27.5594 124.386 25.6289 124.386 23.2529C124.386 20.8109 122.456 18.8804 120.03 18.8804H116.466V29.9354ZM120.03 21.0584C121.235 21.0584 122.225 21.9989 122.225 23.2529C122.225 24.4244 121.235 25.4144 120.03 25.4144H118.611V21.0584H120.03Z" fill="#595959"/>
<path d="M127.125 29.9354V25.6949C127.174 24.7049 128.263 23.8964 129.253 23.8964V21.8174C128.313 21.8174 127.587 22.3289 127.125 22.9889V21.8504H125.079V29.9354H127.125Z" fill="#595959"/>
<path d="M135.621 25.9094C135.621 27.0149 134.73 27.9059 133.641 27.9059C132.536 27.9059 131.645 27.0149 131.645 25.9094C131.645 24.7874 132.536 23.8964 133.641 23.8964C134.73 23.8964 135.621 24.7874 135.621 25.9094ZM137.7 25.9094C137.7 23.6324 135.885 21.8174 133.641 21.8174C131.348 21.8174 129.582 23.6324 129.582 25.9094C129.582 28.1534 131.348 29.9684 133.641 29.9684C135.885 29.9684 137.7 28.1534 137.7 25.9094Z" fill="#595959"/>
<path d="M138.662 21.8504V32.1299H140.708V21.8504H138.662ZM138.464 19.7384C138.464 20.3984 139.025 20.9594 139.685 20.9594C140.394 20.9594 140.922 20.3984 140.922 19.7384C140.922 19.0289 140.394 18.4844 139.685 18.4844C139.025 18.4844 138.464 19.0289 138.464 19.7384Z" fill="#595959"/>
<path d="M147.956 26.6354C147.494 27.2954 146.851 27.7244 146.174 27.9059C145.762 28.0214 145.283 27.9554 145.069 27.8399L149.441 23.9624C148.451 22.3949 147.098 21.8174 145.663 21.8174C143.419 21.8174 141.604 23.6324 141.604 25.9094C141.604 28.1534 143.419 29.9684 145.663 29.9684C147.098 29.9684 148.352 29.4239 149.342 27.9719L147.956 26.6354ZM143.567 25.5959C143.749 24.5564 144.409 23.9294 145.382 23.7974C145.976 23.7314 146.471 23.9294 146.752 24.1769L143.848 26.9159C143.6 26.6684 143.452 26.1734 143.567 25.5959Z" fill="#595959"/>
<path d="M157.525 23.7974C156.65 22.4114 155.363 21.8504 153.977 21.8504C151.684 21.8504 149.918 23.6159 149.918 25.9094C149.918 28.1534 151.684 29.9684 153.977 29.9684C155.363 29.9684 156.716 29.3414 157.525 27.9554L156.04 26.5529C155.528 27.4109 154.819 27.9059 153.977 27.9059C152.872 27.9059 151.948 27.0149 151.948 25.9094C151.948 24.8039 152.888 23.9129 153.977 23.9129C154.967 23.9129 155.512 24.4079 156.04 25.2494L157.525 23.7974Z" fill="#595959"/>
<path d="M157.996 23.5169V27.2954C157.996 29.1434 158.887 29.9684 160.949 29.9684V28.1534C160.355 28.1534 160.058 27.8729 160.058 27.2954V23.5169H161.18V21.8174H160.058V19.5569H157.996V21.8174H157.484V23.5169H157.996Z" fill="#595959"/>
<path d="M164.874 32.1299H166.92V28.8464C167.53 29.5559 168.372 29.9684 169.362 29.9684C171.391 29.9684 172.975 28.1534 172.975 25.9094C172.975 23.6324 171.391 21.8174 169.362 21.8174C168.372 21.8174 167.53 22.2464 166.92 22.9559V21.8504H164.874V32.1299ZM166.92 25.8269C166.969 24.7709 167.811 23.8964 168.933 23.8964C170.038 23.8964 170.929 24.7874 170.929 25.9094C170.929 27.0149 170.038 27.9059 168.933 27.9059C167.811 27.9059 166.92 27.0149 166.92 25.9094V25.8269Z" fill="#595959"/>
<path d="M179.804 25.9094C179.804 27.0149 178.913 27.9059 177.824 27.9059C176.719 27.9059 175.828 27.0149 175.828 25.9094C175.828 24.7874 176.719 23.8964 177.824 23.8964C178.913 23.8964 179.804 24.7874 179.804 25.9094ZM181.883 25.9094C181.883 23.6324 180.068 21.8174 177.824 21.8174C175.531 21.8174 173.765 23.6324 173.765 25.9094C173.765 28.1534 175.531 29.9684 177.824 29.9684C180.068 29.9684 181.883 28.1534 181.883 25.9094Z" fill="#595959"/>
<path d="M184.923 29.9354V25.6949C184.973 24.7049 186.062 23.8964 187.052 23.8964V21.8174C186.111 21.8174 185.385 22.3289 184.923 22.9889V21.8504H182.877V29.9354H184.923Z" fill="#595959"/>
<path d="M187.612 23.5169V27.2954C187.612 29.1434 188.503 29.9684 190.565 29.9684V28.1534C189.971 28.1534 189.674 27.8729 189.674 27.2954V23.5169H190.796V21.8174H189.674V19.5569H187.612V21.8174H187.1V23.5169H187.612Z" fill="#595959"/>
<path d="M200.849 25.2494C200.849 26.3549 199.958 27.2459 198.869 27.2459C197.764 27.2459 196.873 26.3549 196.873 25.2494C196.873 24.1274 197.764 23.2364 198.869 23.2364C199.958 23.2364 200.849 24.1274 200.849 25.2494ZM202.928 25.2494C202.928 22.9724 201.113 21.1574 198.869 21.1574C196.576 21.1574 194.81 22.9724 194.81 25.2494C194.81 27.4934 196.576 29.3084 198.869 29.3084C201.113 29.3084 202.928 27.4934 202.928 25.2494Z" fill="#595959"/>
<path d="M203.389 19.5569V29.9354H205.435V19.5569H203.389Z" fill="#595959"/>
<path d="M206.644 21.8504V29.9354H208.69V21.8504H206.644ZM206.446 19.7384C206.446 20.3984 207.007 20.9594 207.667 20.9594C208.376 20.9594 208.904 20.3984 208.904 19.7384C208.904 19.0289 208.376 18.4844 207.667 18.4844C207.007 18.4844 206.446 19.0289 206.446 19.7384Z" fill="#595959"/>
<path d="M215.608 25.9094C215.608 27.0149 214.717 27.9059 213.628 27.9059C212.522 27.9059 211.631 27.0149 211.631 25.9094C211.631 24.7874 212.522 23.8964 213.628 23.8964C214.717 23.8964 215.608 24.7874 215.608 25.9094ZM217.687 25.9094C217.687 23.6324 215.872 21.8174 213.628 21.8174C211.334 21.8174 209.569 23.6324 209.569 25.9094C209.569 28.1534 211.334 29.9684 213.628 29.9684C215.872 29.9684 217.687 28.1534 217.687 25.9094Z" fill="#595959"/>
<path d="M191.312 23.5169H191.84V29.9354H193.886V23.5169H194.81V21.8174H193.886V21.5039C193.886 20.9264 194.216 20.6954 194.761 20.6954V19.1609C194.579 19.1444 194.398 19.1279 194.233 19.1279C192.451 19.1279 191.84 20.3984 191.84 21.7844V21.8174H191.312V23.5169Z" fill="#595959"/>
</svg>
