<svg width="35" height="24" viewBox="0 0 35 24" fill="none" xmlns="http://www.w3.org/2000/svg">
<path fill-rule="evenodd" clip-rule="evenodd" d="M12.5155 12C15.7322 12 18.3489 9.38333 18.3489 6.16667C18.3489 2.95 15.7322 0.333333 12.5155 0.333333C9.29888 0.333333 6.68221 2.95 6.68221 6.16667C6.68221 9.38333 9.29888 12 12.5155 12ZM0.848877 20.75C0.848877 16.8667 8.61554 14.9167 12.5155 14.9167C16.4155 14.9167 24.1822 16.8667 24.1822 20.75V23.6667H0.848877V20.75ZM12.5155 18.25C9.53221 18.25 6.14888 19.3667 4.74888 20.3333H20.2822C18.8822 19.3667 15.4989 18.25 12.5155 18.25ZM15.0155 6.16667C15.0155 4.78333 13.8989 3.66667 12.5155 3.66667C11.1322 3.66667 10.0155 4.78333 10.0155 6.16667C10.0155 7.55 11.1322 8.66667 12.5155 8.66667C13.8989 8.66667 15.0155 7.55 15.0155 6.16667ZM24.2489 15.0167C26.1822 16.4167 27.5155 18.2833 27.5155 20.75V23.6667H34.1822V20.75C34.1822 17.3833 28.3489 15.4667 24.2489 15.0167ZM28.3489 6.16667C28.3489 9.38333 25.7322 12 22.5155 12C21.6155 12 20.7822 11.7833 20.0155 11.4167C21.0655 9.93333 21.6822 8.11667 21.6822 6.16667C21.6822 4.21667 21.0655 2.4 20.0155 0.916666C20.7822 0.55 21.6155 0.333333 22.5155 0.333333C25.7322 0.333333 28.3489 2.95 28.3489 6.16667Z" fill="#00A551"/>
</svg>
