<svg width="41" height="40" viewBox="0 0 41 40" fill="none" xmlns="http://www.w3.org/2000/svg">
<path d="M34.8904 7.1875H28.3279V4.6875C28.3279 4.51562 28.1873 4.375 28.0154 4.375H25.8279C25.656 4.375 25.5154 4.51562 25.5154 4.6875V7.1875H15.5154V4.6875C15.5154 4.51562 15.3748 4.375 15.2029 4.375H13.0154C12.8435 4.375 12.7029 4.51562 12.7029 4.6875V7.1875H6.14038C5.44897 7.1875 4.89038 7.74609 4.89038 8.4375V34.375C4.89038 35.0664 5.44897 35.625 6.14038 35.625H34.8904C35.5818 35.625 36.1404 35.0664 36.1404 34.375V8.4375C36.1404 7.74609 35.5818 7.1875 34.8904 7.1875ZM33.3279 32.8125H7.70288V10H12.7029V11.875C12.7029 12.0469 12.8435 12.1875 13.0154 12.1875H15.2029C15.3748 12.1875 15.5154 12.0469 15.5154 11.875V10H25.5154V11.875C25.5154 12.0469 25.656 12.1875 25.8279 12.1875H28.0154C28.1873 12.1875 28.3279 12.0469 28.3279 11.875V10H33.3279V32.8125Z" fill="#00A551"/>
<path d="M28.3279 11.875C28.3279 12.0469 28.1873 12.1875 28.0154 12.1875H25.8279C25.656 12.1875 25.5154 12.0469 25.5154 11.875V10H15.5154V11.875C15.5154 12.0469 15.3748 12.1875 15.2029 12.1875H13.0154C12.8435 12.1875 12.7029 12.0469 12.7029 11.875V10H7.70288V32.8125H33.3279V10H28.3279V11.875ZM27.6443 16.9062L19.3396 28.3398C19.2812 28.4198 19.2048 28.4848 19.1166 28.5296C19.0283 28.5744 18.9308 28.5977 18.8318 28.5977C18.7328 28.5977 18.6353 28.5744 18.547 28.5296C18.4588 28.4848 18.3824 28.4198 18.324 28.3398L13.3865 21.543C13.238 21.3359 13.3865 21.0469 13.6404 21.0469H15.7966C15.9998 21.0469 16.1873 21.1445 16.3044 21.3047L18.8318 24.7813L24.7263 16.6641C24.8435 16.5039 25.0349 16.4062 25.2341 16.4062H27.3904C27.6443 16.4062 27.7927 16.6953 27.6443 16.9062Z" fill="#E6F7FF"/>
<path d="M27.3904 16.4062H25.2341C25.0349 16.4062 24.8435 16.5039 24.7263 16.6641L18.8318 24.7813L16.3045 21.3047C16.1873 21.1445 15.9998 21.0469 15.7966 21.0469H13.6404C13.3865 21.0469 13.238 21.3359 13.3865 21.543L18.324 28.3398C18.3824 28.4198 18.4588 28.4848 18.547 28.5296C18.6353 28.5744 18.7328 28.5977 18.8318 28.5977C18.9308 28.5977 19.0283 28.5744 19.1166 28.5296C19.2048 28.4848 19.2812 28.4198 19.3396 28.3398L27.6443 16.9062C27.7927 16.6953 27.6443 16.4062 27.3904 16.4062Z" fill="#00A551"/>
</svg>

